<svg version="1" xmlns="http://www.w3.org/2000/svg" width="2560" height="2560" viewBox="0 0 1920.000000 1920.000000"><path d="M944.5 8.7c-13.7 7.8-58.2 32.9-66.5 37.6-1.9 1-6.4 3.6-10 5.7-3.6 2-9 5.1-12 6.8-3 1.6-13.1 7.4-22.5 12.7-9.3 5.3-19.5 11.1-22.5 12.7-3 1.7-13.6 7.7-23.5 13.3-9.9 5.7-20.2 11.5-23 13-2.7 1.6-23 13-45 25.5s-42.7 24.2-46 26c-3.3 1.8-6.4 3.6-7 4-.5.4-3.9 2.3-7.5 4.2-3.6 2-13 7.3-21 11.8-8 4.6-15.8 9.1-17.5 10-1.6.9-17.2 9.7-34.5 19.5s-40.3 22.8-51 28.8c-10.7 6.1-20.8 11.8-22.5 12.8-1.6 1.1-3.7 2.2-4.5 2.6-2 .9-18.1 10-20 11.3-.8.6-2.1 1.3-2.9 1.7-.8.4-5.8 3.1-11 6.1-5.3 3-11.6 6.6-14.1 8-5.6 3.1-29.5 16.6-49.5 28-8.2 4.6-18.6 10.5-23 13-4.4 2.5-9.1 5.2-10.5 6.1-1.4.8-2.7 1.6-3 1.6-.6.1-9.3 5-14.2 8.1-2.1 1.3-3.9 2.4-4.2 2.4-.2 0-10.9 6-23.7 13.3-23.8 13.6-28.3 16.1-39.9 22.5-3.6 1.9-7.2 4.1-8 4.8-.8.7-1.7 1.2-2 1.1-.3 0-1.6.6-3 1.5-1.4.8-8.1 4.7-15 8.5-6.9 3.9-14.3 8.1-16.5 9.3-7.7 4.3-58 32.8-62.5 35.4-2.5 1.4-15.9 9-29.8 16.8-13.9 7.9-26 14.8-27 15.3-.9.6-5.1 2.9-9.3 5.3l-7.7 4.2v959.9l9.2 5.2c5 2.9 10.5 6 12.1 6.9 1.7.9 8.9 5 16 9 7.2 4 15.9 9 19.5 11 3.6 2 8.8 4.9 11.5 6.5 2.8 1.5 7.9 4.5 11.5 6.5 3.6 2 8.5 4.8 11 6.2 2.5 1.4 16 9 30 17s27.8 15.8 30.5 17.3c11.4 6.3 15.2 8.5 42.5 24 15.7 8.9 39.3 22.3 52.5 29.7 13.2 7.5 25.6 14.5 27.5 15.6 1.9 1.1 5.1 3 7.1 4 2 1.1 11.9 6.7 22 12.4 10.1 5.8 20.4 11.6 22.9 13 2.5 1.4 9.5 5.3 15.5 8.8 6.1 3.5 13.9 7.9 17.5 9.8 3.6 2 8.2 4.6 10.2 5.9 2.1 1.3 4 2.3 4.3 2.3.3 0 2.2 1.1 4.3 2.3 2 1.3 6.2 3.8 9.2 5.4 5.9 3.3 11.2 6.3 73 41.3 21.7 12.3 44 24.9 49.5 28 5.5 3.1 20.6 11.7 33.5 19 12.9 7.3 26 14.7 29 16.3 3 1.6 6 3.3 6.5 3.7.8.6 35.1 20 52.5 29.8 2.5 1.4 10.7 6 18.4 10.4 7.6 4.3 14.2 7.8 14.7 7.8s.9.4.9 1c0 .5.4 1 .9 1 .6 0 7.2 3.5 14.8 7.8 7.6 4.4 16.1 9.1 18.8 10.7 2.8 1.5 13.3 7.5 23.5 13.3 34.2 19.4 54.5 30.9 60 34 3 1.6 8.4 4.7 12 6.7 3.6 2.1 8.5 4.9 11 6.3 2.5 1.4 12.8 7.2 23 13s19 10.5 19.5 10.5c.6 0 12.7-6.6 27-14.8 14.3-8.1 31.4-17.8 38-21.5 6.6-3.7 13.6-7.6 15.5-8.7 1.9-1.1 12.1-6.9 22.5-12.8 10.5-5.9 20.6-11.7 22.5-12.7 1.9-1.1 5.3-3 7.5-4.3 2.2-1.2 11-6.2 19.5-11 8.5-4.9 18-10.2 21-11.8 3-1.6 6-3.3 6.5-3.7.6-.4 3.7-2.2 7-4.1 6.8-3.7 10.5-5.8 19.6-11 11.4-6.4 13-7.4 41.2-23.3 15.3-8.6 29.4-16.6 31.2-17.6 1.9-1.1 5.2-3 7.3-4.1 2-1.2 8.9-5.1 15.2-8.7 6.3-3.5 15.6-8.7 20.5-11.5 5-2.7 10.2-5.8 11.7-6.8 1.5-1.1 2.9-1.9 3.2-1.9.3 0 8-4.3 17.1-9.5 9.2-5.2 17.1-9.5 17.6-9.5s.9-.5.9-1c0-.6.4-1 1-1 .5 0 7.4-3.7 15.2-8.1 7.9-4.5 16.3-9.3 18.8-10.7 2.5-1.4 12.6-7.1 22.5-12.7s20-11.3 22.5-12.7c2.5-1.4 6.1-3.5 8-4.6 1.9-1.2 4.4-2.6 5.5-3.1 1.1-.5 4.3-2.2 7.1-3.8 2.7-1.7 7.2-4.3 10-5.8 2.7-1.5 9.9-5.5 15.9-9 17.3-9.9 48.5-27.5 54.5-30.8 3-1.7 7.2-4.1 9.2-5.4 2.1-1.3 4-2.3 4.3-2.3.2 0 3.9-2 8.1-4.5 4.1-2.5 7.7-4.5 7.9-4.5.1 0 5.3-2.9 11.4-6.5 6.2-3.6 11.4-6.5 11.7-6.5.2 0 2.1-1 4.2-2.3 2-1.3 6.2-3.7 9.2-5.4 3-1.7 15.6-8.8 28-15.8s24.5-13.9 27-15.3c2.5-1.4 12.8-7.2 23-13 27-15.3 59.1-33.4 68-38.5 7.6-4.2 27.1-15.3 37.5-21.2 6.1-3.5 12.6-7.2 14.5-8.3 1.9-1 9.6-5.3 17.1-9.6l13.6-7.6V480l-17.6-9.9c-9.7-5.5-19.2-10.8-21.1-12-1.9-1.1-4.2-2.4-5-2.8-.8-.4-4.8-2.6-8.8-5-4.1-2.4-7.5-4.3-7.7-4.3-.2 0-3.8-2-7.9-4.5-4.2-2.5-7.9-4.5-8.1-4.5-.3 0-2.2-1.1-4.3-2.3-3.5-2.2-6-3.7-17.9-10.3-16.9-9.5-44.8-25.3-48.3-27.5-.8-.5-3.5-2-6-3.3-2.5-1.3-14.2-7.8-26-14.6-11.8-6.7-26.9-15.3-33.5-19-6.6-3.7-13.8-7.8-16-9-2.2-1.3-6.5-3.7-9.5-5.3-3-1.7-8.4-4.8-11.9-6.9-3.4-2.1-6.5-3.8-6.6-3.8-.2 0-6.8-3.7-14.7-8.2-7.9-4.4-16.3-9.2-18.8-10.6-2.5-1.4-15.5-8.8-28.8-16.4-13.4-7.6-24.6-13.8-24.8-13.8-.3 0-3-1.6-6-3.5s-5.6-3.5-5.8-3.5c-.2 0-4.8-2.5-10.2-5.6-5.5-3.1-11.9-6.8-14.4-8.2-2.5-1.4-9.4-5.3-15.5-8.7-6-3.4-13-7.3-15.5-8.7-2.5-1.4-6.9-3.9-9.8-5.7-2.9-1.7-5.5-3.1-5.8-3.1-.2 0-2.1-1.1-4.2-2.3-2-1.3-5.7-3.5-8.2-4.9-11.3-6.3-28.5-16-39-22-6.3-3.6-13.7-7.8-16.5-9.3-2.7-1.6-11.5-6.5-19.5-11-8-4.6-16.3-9.3-18.5-10.5-2.2-1.2-8.5-4.8-14-8-5.5-3.1-10.7-6-11.5-6.4-.8-.4-2.4-1.2-3.5-1.9s-6.7-3.9-12.5-7.1c-5.8-3.2-13-7.3-16-9.1-6.9-4.1-36.9-21.1-53.5-30.3-4.4-2.4-8.4-4.8-9-5.2-.5-.4-3.5-2.1-6.5-3.7-8.6-4.7-14.4-8-29-16.4-7.5-4.2-15.8-8.9-18.5-10.4-2.8-1.5-7.5-4.2-10.5-5.9-3-1.8-6.2-3.5-7-3.9-.8-.4-2.8-1.5-4.5-2.5-1.6-1-5-3-7.5-4.4-2.5-1.4-6.7-3.8-9.5-5.3-2.7-1.6-6.6-3.7-8.5-4.8-1.9-1.1-6.4-3.7-10-5.7-3.6-2-20.7-11.7-38-21.5S972.9 7.8 971 6.7c-1.9-1-5.3-3-7.5-4.2l-4-2.3-15 8.5zM927 233.8v151.7L692.2 514.7C563 585.7 456.9 644 456.4 644.2c-1.1.3-258.4-148.1-258.4-149.1 0-.4 727.2-412.6 728.8-413 .1-.1.2 68.2.2 151.7zm427 54.6c199.9 113.2 363.8 206 364.2 206.4.7.8-257.1 149.9-258.4 149.4-.5-.1-106.6-58.4-235.8-129.5L989 385.5V233.7c0-83.5.3-151.6.8-151.4.4.3 164.3 93 364.2 206.1zm-176.4 271.3C1298.3 626 1397 680.6 1397 681c0 .3-26.2 15.7-58.2 34.2l-58.2 33.6-7.1-9.7c-16.2-22-39-46.7-59-64-51.4-44.5-113-74.9-178.5-87.9-62.8-12.6-125.8-10-187 7.5-39.7 11.4-81.2 31.3-116.1 55.7-31.8 22.4-64.1 53.8-88.6 86.4-4.7 6.2-9.1 11.2-9.7 11-1.8-.4-115.6-66.2-115.6-66.8 0-.4 437.7-241.7 438.8-241.9.2-.1 99.1 54.2 219.8 120.6zM297.9 625L427 699.5l-.3 270.9-.2 271-126 72.8c-69.3 40.1-127.7 73.8-129.7 74.9l-3.8 1.9V970.4c0-260.7.4-420.4.9-420.2.6.1 59 33.8 130 74.8zM1750 970.5c0 231.3-.3 420.5-.7 420.5-.5 0-59.1-33.7-130.3-74.8l-129.5-74.9-.2-270.9-.3-270.9 129.3-74.7c71-41 129.8-74.7 130.5-74.7.9-.1 1.2 84.6 1.2 420.4zm-1201.6-201l56.4 32.6-5.5 12.2c-7.6 16.9-18.5 50.1-22.7 69.2-19.4 87.9-9.3 177.4 28.9 256.2 4.6 9.5 10.9 21.7 14.1 27 56.8 96.9 151.4 164.9 259.8 186.8 16.4 3.3 38.6 6.5 44.7 6.5h2.9v46.5c0 25.6-.2 46.5-.5 46.5s-98.8-54.1-219-120.1L489 1212.7V974.3c0-210.3.2-238.4 1.5-237.9.8.3 26.8 15.2 57.9 33.1zm878.4 205l-.3 238.6-217.5 119.6c-119.6 65.7-218.1 119.8-218.7 120-1 .4-1.3-9.2-1.3-46.1V1360h2.9c6.1 0 28.3-3.2 44.7-6.5 63.9-12.9 122.1-41.1 173.9-84.3 5-4.2 16.2-14.8 25-23.6 63.2-63.4 101.6-144.3 111.7-235.1 1.7-15.8 1.7-64.2 0-80-4.4-39.8-14.9-80.3-29.6-114-3.1-7.2-5.8-13.3-5.9-13.7-.2-.7 113-66.7 114.6-66.8.4 0 .6 107.3.5 238.5zM1173 809.7c14.5 25.2 42.8 74.1 62.8 108.8 20 34.6 36.4 63.3 36.5 63.6.1.4-27.9 49.5-62.3 109.2l-62.5 108.6-63.3.1c-34.8 0-63.1-.3-62.9-.8 2-3.5 75.9-131.9 97.4-169 15-26.1 27.3-47.5 27.3-47.6 0-.6-61.1-106.1-61.9-106.9-.7-.7-28.3 46.5-110.4 189.3-20 34.9-45.9 79.7-57.4 99.5l-20.8 36-62.8.3-62.7.2-2.4-3.7c-3.1-4.9-122.6-212.1-123.3-213.9-.4-1.1 28.4-51.6 113.3-198.4l11.3-19.5 63-.3c34.7-.1 63.1 0 63.1.3 0 .5-32.2 56.5-92.8 161.5-17.4 30-31.5 54.9-31.5 55.5 0 2.1 61.6 107.6 62.4 106.8.4-.4 13.5-22.9 29-49.8 15.5-27 43.3-75.3 61.9-107.5s47.3-82.1 64-111c16.6-28.9 30.8-53.5 31.6-54.8l1.4-2.2h125.6l26.4 45.7zm-464.5 594.1l218 120 .3 157.2.2 157.2-2.2-1.4c-1.3-.8-161.3-91.3-355.5-201.2C375 1525.7 216 1435.5 216 1435.1c0-.3 60.2-35.3 133.8-77.7l133.7-77.2 3.5 1.8c1.9 1 101.6 55.9 221.5 121.8zm863.3-43.3c70.5 40.7 128 74.4 127.9 74.8-.2.6-681.7 386.8-709 401.8-1.6.9-1.7-6.7-1.5-156.1l.3-157.1L1211 1402l221.5-121.8 5.6 3.1c3 1.8 63.2 36.5 133.7 77.2z"/></svg>